<?xml version="1.0" encoding="UTF-8" standalone="no"?>
<!-- Created with Inkscape (http://www.inkscape.org/) -->

<svg
   width="16"
   height="16"
   viewBox="0 0 4.2333333 4.2333333"
   version="1.1"
   id="svg1"
   xmlns="http://www.w3.org/2000/svg"
   xmlns:svg="http://www.w3.org/2000/svg">
  <defs
     id="defs1" />
  <g
     id="layer1">
    <path
       d="m 2.1166667,0.31750004 c -0.1238685,0 -0.224896,0.10102748 -0.224896,0.22489583 V 2.4733375 L 1.3760916,1.9576583 c -0.042168,-0.042168 -0.09927,-0.065888 -0.1590084,-0.065888 -0.059738,0 -0.1168403,0.023719 -0.1590082,0.065888 -0.08785,0.08785 -0.08785,0.2301667 0,0.3180167 l 0.8995832,0.8995833 c 0.08785,0.08785 0.2301668,0.08785 0.3180168,0 L 3.1752583,2.275675 c 0.08785,-0.08785 0.08785,-0.2301667 0,-0.3180167 -0.08785,-0.08785 -0.2301667,-0.08785 -0.3180166,0 L 2.3415625,2.4733375 V 0.54239587 c 0,-0.12386835 -0.1010275,-0.22489583 -0.2248958,-0.22489583 z M 0.76729164,3.4660417 V 3.9158333 H 3.4660417 V 3.4660417 Z m 0,0"
       fill="#2e3436"
       id="path1"
       style="fill:#000000;stroke-width:0.224896" />
    <filter
       id="a"
       height="1"
       width="1"
       x="0"
       y="0">
      <feColorMatrix
         color-interpolation-filters="sRGB"
         values="0 0 0 0 1 0 0 0 0 1 0 0 0 0 1 0 0 0 1 0"
         id="feColorMatrix1" />
    </filter>
    <mask
       id="b">
      <g
         filter="url(#a)"
         id="g1">
        <path
           d="m -1.6 -1.6 h 19.2 v 19.2 h -19.2 z"
           fill-opacity="0.5"
           id="path1-5" />
      </g>
    </mask>
    <clipPath
       id="c">
      <path
         d="m 0 0 h 1600 v 1200 h -1600 z"
         id="path2" />
    </clipPath>
    <mask
       id="d">
      <g
         filter="url(#a)"
         id="g3">
        <path
           d="m -1.6 -1.6 h 19.2 v 19.2 h -19.2 z"
           fill-opacity="0.7"
           id="path3" />
      </g>
    </mask>
    <clipPath
       id="e">
      <path
         d="m 0 0 h 1600 v 1200 h -1600 z"
         id="path4" />
    </clipPath>
    <mask
       id="f">
      <g
         filter="url(#a)"
         id="g5">
        <path
           d="m -1.6 -1.6 h 19.2 v 19.2 h -19.2 z"
           fill-opacity="0.35"
           id="path5" />
      </g>
    </mask>
    <clipPath
       id="g">
      <path
         d="m 0 0 h 1600 v 1200 h -1600 z"
         id="path6" />
    </clipPath>
    <path
       d="M 0.40514322,0.12402339 0.12402342,0.40514318 3.8281901,4.1093099 4.1093099,3.8281901 Z m 0,0"
       fill="#222222"
       id="path8"
       style="stroke-width:0.264583;fill:#000000" />
    <g
       mask="url(#b)"
       id="g10"
       transform="matrix(0.26458333,0,0,0.26458333,-1.8520833,-1.0583333)">
      <g
         clip-path="url(#c)"
         transform="translate(-820,-704)"
         id="g9">
        <path
           d="m 550,182 c -0.35156,0.004 -0.69531,0.10156 -1,0.28125 v 3.4375 c 0.30469,0.17969 0.64844,0.27734 1,0.28125 1.10547,0 2,-0.89453 2,-2 0,-1.10547 -0.89453,-2 -2,-2 z m 0,5 c -0.33984,0 -0.67969,0.0586 -1,0.17578 V 194 h 4 v -4 c 0,-1.65625 -1.34375,-3 -3,-3 z m 0,0"
           id="path9" />
      </g>
    </g>
    <g
       mask="url(#d)"
       id="g12"
       transform="matrix(0.26458333,0,0,0.26458333,-1.8520833,-1.0583333)">
      <g
         clip-path="url(#e)"
         transform="translate(-820,-704)"
         id="g11">
        <path
           d="m 569,182 v 4 c 1.10547,0 2,-0.89453 2,-2 0,-1.10547 -0.89453,-2 -2,-2 z m 0,5 v 7 h 3 v -4 c 0,-1.65625 -1.34375,-3 -3,-3 z m 0,0"
           id="path10" />
      </g>
    </g>
    <g
       mask="url(#f)"
       id="g14"
       transform="matrix(0.26458333,0,0,0.26458333,-1.8520833,-1.0583333)">
      <g
         clip-path="url(#g)"
         transform="translate(-820,-704)"
         id="g13">
        <path
           d="m 573,182.26953 v 3.44922 c 0.61328,-0.35547 0.99609,-1.00781 1,-1.71875 0,-0.71484 -0.38281,-1.375 -1,-1.73047 z m 0,4.90625 V 194 h 2 v -4 c 0,-1.26953 -0.80078,-2.40234 -2,-2.82422 z m 0,0"
           id="path12" />
      </g>
    </g>
  </g>
</svg>
